<svg width="88" height="24" viewBox="0 0 88 24" fill="none" xmlns="http://www.w3.org/2000/svg">
<path d="M76.1944 23.568C74.0824 23.568 72.141 23.0773 70.3703 22.096C68.5997 21.0933 67.1917 19.7173 66.1463 17.968C65.1223 16.1973 64.6104 14.2027 64.6104 11.984C64.6104 9.76534 65.1223 7.78134 66.1463 6.03201C67.1917 4.26134 68.5997 2.88534 70.3703 1.90401C72.141 0.922674 74.0824 0.432007 76.1944 0.432007C78.3277 0.432007 80.269 0.922674 82.0183 1.90401C83.789 2.88534 85.1863 4.26134 86.2104 6.03201C87.2344 7.78134 87.7464 9.76534 87.7464 11.984C87.7464 14.2027 87.2344 16.1973 86.2104 17.968C85.1863 19.7173 83.789 21.0933 82.0183 22.096C80.2477 23.0773 78.3064 23.568 76.1944 23.568ZM76.1944 17.744C77.7944 17.744 79.053 17.2213 79.9704 16.176C80.909 15.1307 81.3783 13.7333 81.3783 11.984C81.3783 10.192 80.909 8.78401 79.9704 7.76001C79.053 6.71467 77.7944 6.19201 76.1944 6.19201C74.573 6.19201 73.3037 6.71467 72.3864 7.76001C71.469 8.78401 71.0104 10.192 71.0104 11.984C71.0104 13.7547 71.469 15.1627 72.3864 16.208C73.3037 17.232 74.573 17.744 76.1944 17.744Z" fill="#0A081F"/>
<path d="M55.5596 8.20794C55.1969 7.6106 54.6956 7.15194 54.0556 6.83194C53.4369 6.51194 52.7009 6.35194 51.8476 6.35194C50.2689 6.35194 49.0209 6.86394 48.1036 7.88794C47.2076 8.91194 46.7596 10.2879 46.7596 12.0159C46.7596 13.9573 47.2396 15.4399 48.1996 16.4639C49.1809 17.4666 50.5996 17.9679 52.4556 17.9679C54.6529 17.9679 56.2209 16.9759 57.1596 14.9919H50.8556V10.4799H62.5676V16.5599C62.0769 17.7546 61.3516 18.8746 60.3916 19.9199C59.4529 20.9653 58.2583 21.8293 56.8076 22.5119C55.3569 23.1733 53.7036 23.5039 51.8476 23.5039C49.5863 23.5039 47.5809 23.0239 45.8316 22.0639C44.1036 21.0826 42.7596 19.7279 41.7996 17.9999C40.8609 16.2506 40.3916 14.2559 40.3916 12.0159C40.3916 9.79727 40.8609 7.82394 41.7996 6.09594C42.7596 4.3466 44.1036 2.99194 45.8316 2.03194C47.5596 1.0506 49.5543 0.559937 51.8156 0.559937C54.6529 0.559937 56.9996 1.2426 58.8556 2.60794C60.7116 3.97327 61.8636 5.83994 62.3116 8.20794H55.5596Z" fill="#0A081F"/>
<path d="M26.7881 23.568C24.6761 23.568 22.7348 23.0773 20.9641 22.096C19.1934 21.0933 17.7854 19.7173 16.7401 17.968C15.7161 16.1973 15.2041 14.2027 15.2041 11.984C15.2041 9.76534 15.7161 7.78134 16.7401 6.03201C17.7854 4.26134 19.1934 2.88534 20.9641 1.90401C22.7348 0.922674 24.6761 0.432007 26.7881 0.432007C28.9214 0.432007 30.8628 0.922674 32.6121 1.90401C34.3828 2.88534 35.7801 4.26134 36.8041 6.03201C37.8281 7.78134 38.3401 9.76534 38.3401 11.984C38.3401 14.2027 37.8281 16.1973 36.8041 17.968C35.7801 19.7173 34.3828 21.0933 32.6121 22.096C30.8414 23.0773 28.9001 23.568 26.7881 23.568ZM26.7881 17.744C28.3881 17.744 29.6468 17.2213 30.5641 16.176C31.5028 15.1307 31.9721 13.7333 31.9721 11.984C31.9721 10.192 31.5028 8.78401 30.5641 7.76001C29.6468 6.71467 28.3881 6.19201 26.7881 6.19201C25.1668 6.19201 23.8974 6.71467 22.9801 7.76001C22.0628 8.78401 21.6041 10.192 21.6041 11.984C21.6041 13.7547 22.0628 15.1627 22.9801 16.208C23.8974 17.232 25.1668 17.744 26.7881 17.744Z" fill="#0A081F"/>
<path d="M6.52542 18.5439H13.5334V23.3439H0.253418V0.783936H6.52542V18.5439Z" fill="#0A081F"/>
</svg>
